<svg width="1009" height="167" viewBox="0 0 1009 167" fill="none" xmlns="http://www.w3.org/2000/svg">
<path d="M3.5 77.6791C3.5 66.5191 4.84431 64.1904 11.2857 64.1904H106.938C113.38 64.1904 114.724 66.5191 114.724 77.6791V89.2408C114.724 100.401 113.38 102.729 106.938 102.729H11.2857C4.84431 102.729 3.5 100.401 3.5 89.2408V77.6791Z" fill="#FFB400" stroke="#0D2C54" stroke-width="7" stroke-linecap="round"/>
<path d="M3.5 16.9886C3.5 5.82901 4.84431 3.5 11.2857 3.5H106.938C113.38 3.5 114.724 5.82901 114.724 16.9886V28.5503C114.724 39.71 113.38 42.039 106.938 42.039H11.2857C4.84431 42.039 3.5 39.71 3.5 28.5503V16.9886Z" fill="#7FB800" stroke="#0D2C54" stroke-width="7" stroke-linecap="round"/>
<path d="M3.5 138.369C3.5 127.21 4.84431 124.881 11.2857 124.881H106.938C113.38 124.881 114.724 127.21 114.724 138.369V149.931C114.724 161.091 113.38 163.42 106.938 163.42H11.2857C4.84431 163.42 3.5 161.091 3.5 149.931V138.369Z" fill="#00A6ED" stroke="#0D2C54" stroke-width="7" stroke-linecap="round"/>
<path d="M141.5 161.1V1.5H172.736V161.1H141.5ZM193.954 161.1V47.1H222.226L224.05 68.076V161.1H193.954ZM269.422 161.1V102.732H299.518V161.1H269.422ZM269.422 102.732C269.422 94.98 268.51 88.976 266.686 84.72C265.014 80.464 262.582 77.424 259.39 75.6C256.198 73.624 252.474 72.636 248.218 72.636C240.466 72.484 234.462 74.84 230.206 79.704C226.102 84.568 224.05 91.788 224.05 101.364H214.018C214.018 89.204 215.766 78.944 219.262 70.584C222.91 62.072 227.926 55.612 234.31 51.204C240.846 46.644 248.446 44.364 257.11 44.364C266.078 44.364 273.754 46.188 280.138 49.836C286.522 53.484 291.386 59.184 294.73 66.936C298.074 74.536 299.67 84.416 299.518 96.576V102.732H269.422ZM314.42 161.1V1.5H344.516V139.896L342.92 161.1H314.42ZM378.944 163.836C369.368 163.836 361.236 161.404 354.548 156.54C348.012 151.676 342.996 144.76 339.5 135.792C336.004 126.824 334.256 116.26 334.256 104.1C334.256 91.788 336.004 81.224 339.5 72.408C342.996 63.44 348.012 56.524 354.548 51.66C361.236 46.796 369.368 44.364 378.944 44.364C389.432 44.364 398.476 46.796 406.076 51.66C413.828 56.524 419.832 63.44 424.088 72.408C428.344 81.224 430.472 91.788 430.472 104.1C430.472 116.26 428.344 126.824 424.088 135.792C419.832 144.76 413.828 151.676 406.076 156.54C398.476 161.404 389.432 163.836 378.944 163.836ZM371.192 136.248C376.664 136.248 381.452 134.88 385.556 132.144C389.812 129.408 393.156 125.608 395.588 120.744C398.02 115.88 399.236 110.332 399.236 104.1C399.236 97.868 398.02 92.32 395.588 87.456C393.308 82.592 390.04 78.868 385.784 76.284C381.68 73.548 376.892 72.18 371.42 72.18C366.252 72.18 361.616 73.548 357.512 76.284C353.408 79.02 350.216 82.82 347.936 87.684C345.656 92.396 344.516 97.868 344.516 104.1C344.516 110.332 345.656 115.88 347.936 120.744C350.216 125.608 353.332 129.408 357.284 132.144C361.388 134.88 366.024 136.248 371.192 136.248ZM494.701 163.836C483.149 163.836 472.813 161.328 463.693 156.312C454.725 151.144 447.657 144.076 442.489 135.108C437.473 126.14 434.965 115.804 434.965 104.1C434.965 92.396 437.473 82.06 442.489 73.092C447.505 64.124 454.497 57.132 463.465 52.116C472.433 46.948 482.693 44.364 494.245 44.364C505.949 44.364 516.285 46.948 525.253 52.116C534.221 57.132 541.213 64.124 546.229 73.092C551.245 82.06 553.753 92.396 553.753 104.1C553.753 115.804 551.245 126.14 546.229 135.108C541.213 144.076 534.221 151.144 525.253 156.312C516.437 161.328 506.253 163.836 494.701 163.836ZM494.701 136.02C500.325 136.02 505.265 134.652 509.521 131.916C513.777 129.18 517.045 125.456 519.325 120.744C521.757 115.88 522.973 110.332 522.973 104.1C522.973 97.868 521.757 92.396 519.325 87.684C516.893 82.82 513.473 79.02 509.065 76.284C504.809 73.548 499.869 72.18 494.245 72.18C488.773 72.18 483.833 73.548 479.425 76.284C475.169 79.02 471.825 82.82 469.393 87.684C466.961 92.396 465.745 97.868 465.745 104.1C465.745 110.332 466.961 115.88 469.393 120.744C471.825 125.456 475.245 129.18 479.653 131.916C484.061 134.652 489.077 136.02 494.701 136.02ZM639.721 161.1L637.897 140.124V47.1H667.993V161.1H639.721ZM562.429 105.468V47.1H592.525V105.468H562.429ZM592.525 105.468C592.525 113.068 593.361 119.072 595.033 123.48C596.857 127.736 599.365 130.852 602.557 132.828C605.901 134.652 609.625 135.564 613.729 135.564C621.633 135.716 627.637 133.36 631.741 128.496C635.845 123.48 637.897 116.26 637.897 106.836H648.157C648.157 118.996 646.333 129.332 642.685 137.844C639.037 146.204 634.021 152.664 627.637 157.224C621.253 161.632 613.729 163.836 605.065 163.836C595.945 163.836 588.193 162.012 581.809 158.364C575.425 154.716 570.561 149.092 567.217 141.492C564.025 133.74 562.429 123.784 562.429 111.624V105.468H592.525ZM684.947 161.1V47.1H713.219L715.043 68.076V161.1H684.947ZM760.415 161.1V102.732H790.511V161.1H760.415ZM760.415 102.732C760.415 94.98 759.503 88.976 757.679 84.72C756.007 80.464 753.575 77.424 750.383 75.6C747.191 73.624 743.467 72.636 739.211 72.636C731.459 72.484 725.455 74.84 721.199 79.704C717.095 84.568 715.043 91.788 715.043 101.364H705.011C705.011 89.204 706.759 78.944 710.255 70.584C713.903 62.072 718.919 55.612 725.303 51.204C731.839 46.644 739.439 44.364 748.103 44.364C757.071 44.364 764.747 46.188 771.131 49.836C777.515 53.484 782.379 59.184 785.723 66.936C789.067 74.536 790.663 84.416 790.511 96.576V102.732H760.415ZM886.581 161.1L884.985 139.896V1.5H915.081V161.1H886.581ZM850.785 163.836C840.297 163.836 831.177 161.404 823.425 156.54C815.825 151.676 809.897 144.76 805.641 135.792C801.385 126.824 799.257 116.26 799.257 104.1C799.257 91.788 801.385 81.224 805.641 72.408C809.897 63.44 815.825 56.524 823.425 51.66C831.177 46.796 840.297 44.364 850.785 44.364C860.361 44.364 868.417 46.796 874.953 51.66C881.641 56.524 886.733 63.44 890.229 72.408C893.725 81.224 895.473 91.788 895.473 104.1C895.473 116.26 893.725 126.824 890.229 135.792C886.733 144.76 881.641 151.676 874.953 156.54C868.417 161.404 860.361 163.836 850.785 163.836ZM858.537 136.248C863.705 136.248 868.265 134.88 872.217 132.144C876.321 129.408 879.513 125.608 881.793 120.744C884.073 115.88 885.213 110.332 885.213 104.1C885.213 97.868 884.073 92.32 881.793 87.456C879.513 82.592 876.321 78.868 872.217 76.284C868.265 73.548 863.629 72.18 858.309 72.18C852.837 72.18 848.049 73.548 843.945 76.284C839.841 78.868 836.573 82.592 834.141 87.456C831.709 92.32 830.493 97.868 830.493 104.1C830.493 110.332 831.709 115.88 834.141 120.744C836.573 125.608 839.841 129.408 843.945 132.144C848.201 134.88 853.065 136.248 858.537 136.248Z" fill="#0D2C54"/>
<circle cx="972" cy="127" r="36.5" fill="#0D2C54"/>
</svg>
