<svg width="1349" height="251" viewBox="0 0 1349 251" fill="none" xmlns="http://www.w3.org/2000/svg">
<path d="M273.318 189V38.311H299.025V189H273.318ZM257.852 189V178.132C257.852 176.46 258.27 175.206 259.106 174.37C260.081 173.395 261.405 172.768 263.077 172.489L276.244 169.772L278.961 189H257.852ZM293.8 189L296.308 169.772L309.684 172.489C311.217 172.768 312.401 173.395 313.237 174.37C314.212 175.206 314.7 176.46 314.7 178.132V189H293.8ZM278.961 38.311L276.244 57.539L263.077 54.822C261.405 54.404 260.081 53.777 259.106 52.941C258.27 51.9657 257.852 50.642 257.852 48.97V38.311H278.961ZM314.7 38.311V48.97C314.7 50.642 314.212 51.9657 313.237 52.941C312.401 53.777 311.217 54.404 309.684 54.822L296.308 57.539L293.8 38.311H314.7ZM341.687 189V82.201H356.108C359.313 82.201 361.333 83.664 362.169 86.59L363.632 96.204C368.23 91.4667 373.246 87.7047 378.68 84.918C384.114 81.992 390.384 80.529 397.49 80.529C405.432 80.529 412.05 82.2707 417.345 85.754C422.64 89.098 426.611 93.8353 429.258 99.966C432.045 105.957 433.438 112.924 433.438 120.866V189H410.03V120.866C410.03 113.899 408.358 108.465 405.014 104.564C401.809 100.663 396.933 98.712 390.384 98.712C385.647 98.712 381.188 99.8267 377.008 102.056C372.828 104.285 368.927 107.351 365.304 111.252V189H341.687ZM326.221 189V178.132C326.221 176.46 326.639 175.206 327.475 174.37C328.45 173.395 329.774 172.768 331.446 172.489L344.613 169.772L347.121 189H326.221ZM359.87 189L362.378 169.772L375.545 172.489C377.217 172.768 378.471 173.395 379.307 174.37C380.282 175.206 380.77 176.46 380.77 178.132V189H359.87ZM428.004 189L430.512 169.772L443.888 172.489C445.56 172.768 446.814 173.395 447.65 174.37C448.486 175.206 448.904 176.46 448.904 178.132V189H428.004ZM347.121 82.201L344.613 101.429L331.446 98.712C329.774 98.294 328.45 97.667 327.475 96.831C326.639 95.8557 326.221 94.532 326.221 92.86V82.201H347.121ZM511.58 190.463C507.26 190.463 502.662 190.254 497.786 189.836C493.048 189.557 488.172 189 483.156 188.164C478.279 187.328 473.472 186.213 468.735 184.82V34.131H492.352V95.995C496.532 91.397 501.408 87.7047 506.982 84.918C512.555 81.992 518.825 80.529 525.792 80.529C534.291 80.529 541.467 82.828 547.319 87.426C553.31 91.8847 557.838 98.1547 560.904 106.236C563.969 114.178 565.502 123.444 565.502 134.033C565.502 144.901 563.69 154.585 560.068 163.084C556.584 171.583 550.872 178.271 542.93 183.148C535.127 188.025 524.677 190.463 511.58 190.463ZM512.834 172.698C519.243 172.698 524.538 171.305 528.718 168.518C532.898 165.731 536.033 161.482 538.123 155.769C540.213 150.056 541.258 142.95 541.258 134.451C541.258 122.747 539.377 113.899 535.615 107.908C531.853 101.777 525.931 98.712 517.85 98.712C512.276 98.712 507.469 99.8963 503.429 102.265C499.388 104.634 495.696 108.117 492.352 112.715V169.981C496.392 170.956 499.945 171.653 503.011 172.071C506.215 172.489 509.49 172.698 512.834 172.698ZM474.169 34.131L471.661 53.359L458.285 50.642C456.752 50.224 455.498 49.597 454.523 48.761C453.687 47.7857 453.269 46.462 453.269 44.79V34.131H474.169ZM629.934 80.529C640.802 80.529 650.068 82.828 657.731 87.426C665.534 91.8847 671.525 98.2243 675.705 106.445C680.024 114.666 682.184 124.28 682.184 135.287C682.184 146.434 680.024 156.187 675.705 164.547C671.525 172.768 665.534 179.177 657.731 183.775C650.068 188.234 640.802 190.463 629.934 190.463C619.345 190.463 610.079 188.234 602.137 183.775C594.334 179.177 588.273 172.768 583.954 164.547C579.774 156.187 577.684 146.434 577.684 135.287C577.684 124.28 579.774 114.666 583.954 106.445C588.273 98.2243 594.334 91.8847 602.137 87.426C610.079 82.828 619.345 80.529 629.934 80.529ZM629.934 172.489C639.409 172.489 646.375 169.354 650.834 163.084C655.432 156.675 657.731 147.479 657.731 135.496C657.731 127.554 656.686 120.866 654.596 115.432C652.645 109.859 649.58 105.679 645.4 102.892C641.359 99.966 636.204 98.503 629.934 98.503C623.664 98.503 618.439 99.966 614.259 102.892C610.079 105.818 606.944 110.068 604.854 115.641C602.903 121.075 601.928 127.693 601.928 135.496C601.928 147.2 604.227 156.326 608.825 162.875C613.423 169.284 620.459 172.489 629.934 172.489ZM740.42 190.672C732.757 190.672 726.208 188.93 720.774 185.447C715.34 181.964 711.23 177.226 708.443 171.235C705.796 165.104 704.472 158.068 704.472 150.126V82.201H728.089V150.126C728.089 157.232 729.691 162.736 732.896 166.637C736.101 170.399 740.977 172.28 747.526 172.28C752.263 172.28 756.722 171.235 760.902 169.145C765.082 166.916 768.983 163.85 772.606 159.949V82.201H796.223V189H782.011C778.667 189 776.577 187.467 775.741 184.402L774.278 174.997C769.68 179.595 764.664 183.357 759.23 186.283C753.796 189.209 747.526 190.672 740.42 190.672ZM790.789 189L793.297 169.772L806.673 172.489C808.206 172.768 809.39 173.395 810.226 174.37C811.201 175.206 811.689 176.46 811.689 178.132V189H790.789ZM709.906 82.201L707.398 101.429L694.022 98.712C692.489 98.294 691.235 97.667 690.26 96.831C689.424 95.8557 689.006 94.532 689.006 92.86V82.201H709.906ZM778.249 82.201L775.741 101.429L762.365 98.712C760.693 98.294 759.369 97.667 758.394 96.831C757.558 95.8557 757.14 94.532 757.14 92.86V82.201H778.249ZM836.021 189V82.201H850.442C853.647 82.201 855.667 83.664 856.503 86.59L857.966 96.204C862.564 91.4667 867.58 87.7047 873.014 84.918C878.448 81.992 884.718 80.529 891.824 80.529C899.766 80.529 906.384 82.2707 911.679 85.754C916.974 89.098 920.945 93.8353 923.592 99.966C926.379 105.957 927.772 112.924 927.772 120.866V189H904.364V120.866C904.364 113.899 902.692 108.465 899.348 104.564C896.143 100.663 891.267 98.712 884.718 98.712C879.981 98.712 875.522 99.8267 871.342 102.056C867.162 104.285 863.261 107.351 859.638 111.252V189H836.021ZM820.555 189V178.132C820.555 176.46 820.973 175.206 821.809 174.37C822.784 173.395 824.108 172.768 825.78 172.489L838.947 169.772L841.455 189H820.555ZM854.204 189L856.712 169.772L869.879 172.489C871.551 172.768 872.805 173.395 873.641 174.37C874.616 175.206 875.104 176.46 875.104 178.132V189H854.204ZM922.338 189L924.846 169.772L938.222 172.489C939.894 172.768 941.148 173.395 941.984 174.37C942.82 175.206 943.238 176.46 943.238 178.132V189H922.338ZM841.455 82.201L838.947 101.429L825.78 98.712C824.108 98.294 822.784 97.667 821.809 96.831C820.973 95.8557 820.555 94.532 820.555 92.86V82.201H841.455ZM992.329 190.463C983.969 190.463 976.793 188.234 970.802 183.775C964.81 179.177 960.282 172.768 957.217 164.547C954.151 156.326 952.619 146.782 952.619 135.914C952.619 125.464 954.43 116.059 958.053 107.699C961.815 99.339 967.109 92.651 973.937 87.635C980.903 82.619 989.124 80.111 998.599 80.111C1004.73 80.111 1009.95 81.156 1014.27 83.246C1018.73 85.1967 1022.63 87.9137 1025.98 91.397V34.131H1049.59V189H1035.17C1031.97 189 1029.95 187.467 1029.11 184.402L1027.23 173.325C1022.77 178.48 1017.69 182.66 1011.97 185.865C1006.26 188.93 999.713 190.463 992.329 190.463ZM1000.27 171.862C1005.84 171.862 1010.65 170.678 1014.69 168.309C1018.73 165.801 1022.49 162.387 1025.98 158.068V108.744C1022.91 104.843 1019.57 102.126 1015.95 100.593C1012.32 98.921 1008.35 98.085 1004.03 98.085C998.181 98.085 993.234 99.548 989.194 102.474C985.153 105.4 982.088 109.719 979.998 115.432C977.908 121.005 976.863 127.833 976.863 135.914C976.863 147.618 978.744 156.535 982.506 162.666C986.268 168.797 992.189 171.862 1000.27 171.862ZM1031.41 34.131L1028.9 53.359L1015.74 50.642C1014.06 50.224 1012.74 49.597 1011.77 48.761C1010.93 47.7857 1010.51 46.462 1010.51 44.79V34.131H1031.41ZM1044.16 189L1046.67 169.772L1059.84 172.489C1061.51 172.768 1062.76 173.395 1063.6 174.37C1064.57 175.206 1065.06 176.46 1065.06 178.132V189H1044.16ZM1090.61 190.6C1086.75 190.6 1083.41 189.2 1080.61 186.4C1077.81 183.6 1076.41 180.2 1076.41 176.2C1076.41 172.333 1077.81 169 1080.61 166.2C1083.41 163.4 1086.75 162 1090.61 162C1094.61 162 1098.01 163.4 1100.81 166.2C1103.61 169 1105.01 172.333 1105.01 176.2C1105.01 180.2 1103.61 183.6 1100.81 186.4C1098.01 189.2 1094.61 190.6 1090.61 190.6ZM1150.06 189.8C1144.6 189.8 1139.66 188.9 1135.26 187.1C1130.93 185.233 1127.26 182.6 1124.26 179.2C1121.2 175.8 1118.9 171.867 1117.36 167.4C1115.83 162.867 1115.06 158.133 1115.06 153.2C1115.06 147.667 1115.96 142.633 1117.76 138.1C1119.56 133.567 1122.06 129.667 1125.26 126.4C1128.53 123.133 1132.43 120.6 1136.96 118.8C1141.5 116.933 1146.36 116 1151.56 116C1154.5 116 1157.26 116.267 1159.86 116.8C1162.53 117.333 1165.06 118.033 1167.46 118.9C1169.93 119.7 1172.3 120.567 1174.56 121.5V129.9L1167.66 129.6C1165.66 128.733 1163.3 128 1160.56 127.4C1157.83 126.8 1155.1 126.5 1152.36 126.5C1147.23 126.5 1142.8 127.6 1139.06 129.8C1135.4 132 1132.56 135.1 1130.56 139.1C1128.56 143.1 1127.56 147.767 1127.56 153.1C1127.56 158.1 1128.46 162.6 1130.26 166.6C1132.13 170.533 1134.83 173.667 1138.36 176C1141.96 178.267 1146.36 179.4 1151.56 179.4C1154.5 179.4 1157.23 178.967 1159.76 178.1C1162.3 177.233 1164.76 175.733 1167.16 173.6C1167.5 173.333 1167.83 173.133 1168.16 173C1168.5 172.8 1168.86 172.7 1169.26 172.7C1169.93 172.7 1170.5 172.967 1170.96 173.5L1175.86 178.7C1173.06 182.033 1169.53 184.733 1165.26 186.8C1161 188.8 1155.93 189.8 1150.06 189.8ZM1165.36 127.5L1174.56 129.9V138.8H1169.56C1168.83 138.8 1168.23 138.6 1167.76 138.2C1167.36 137.8 1167.06 137.167 1166.86 136.3L1165.36 127.5ZM1189.56 189V114.9H1200.86V189H1189.56ZM1182.16 189V183.8C1182.16 183 1182.36 182.4 1182.76 182C1183.23 181.533 1183.86 181.233 1184.66 181.1L1190.96 179.8L1192.16 189H1182.16ZM1198.26 189L1199.46 179.8L1205.76 181.1C1206.56 181.233 1207.16 181.533 1207.56 182C1208.03 182.4 1208.26 183 1208.26 183.8V189H1198.26ZM1192.16 114.9L1190.96 124.1L1184.66 122.8C1183.86 122.6 1183.23 122.3 1182.76 121.9C1182.36 121.433 1182.16 120.8 1182.16 120V114.9H1192.16ZM1220.13 189V137.9H1231.43V189H1220.13ZM1212.73 189V183.8C1212.73 183 1212.93 182.4 1213.33 182C1213.79 181.533 1214.43 181.233 1215.23 181.1L1221.53 179.8L1222.73 189H1212.73ZM1228.83 189L1230.03 179.8L1236.33 181.1C1237.13 181.233 1237.73 181.533 1238.13 182C1238.59 182.4 1238.83 183 1238.83 183.8V189H1228.83ZM1222.73 137.9L1221.53 147.1L1215.23 145.8C1214.43 145.6 1213.79 145.3 1213.33 144.9C1212.93 144.433 1212.73 143.8 1212.73 143V137.9H1222.73ZM1225.83 129.9C1223.83 129.9 1222.09 129.167 1220.63 127.7C1219.16 126.233 1218.43 124.533 1218.43 122.6C1218.43 120.533 1219.16 118.8 1220.63 117.4C1222.16 115.933 1223.89 115.2 1225.83 115.2C1227.83 115.2 1229.56 115.933 1231.03 117.4C1232.56 118.8 1233.33 120.533 1233.33 122.6C1233.33 124.533 1232.56 126.233 1231.03 127.7C1229.56 129.167 1227.83 129.9 1225.83 129.9ZM1266.1 189.7C1261.63 189.7 1257.67 188.633 1254.2 186.5C1250.8 184.3 1248.1 181.233 1246.1 177.3C1244.17 173.3 1243.2 168.633 1243.2 163.3C1243.2 158.233 1244.13 153.733 1246 149.8C1247.87 145.8 1250.63 142.7 1254.3 140.5C1257.97 138.233 1262.47 137.1 1267.8 137.1C1270.13 137.1 1272.67 137.433 1275.4 138.1C1278.2 138.767 1280.9 139.633 1283.5 140.7V147.3L1277.6 147.8C1276.27 147.067 1274.87 146.533 1273.4 146.2C1272 145.867 1270.37 145.7 1268.5 145.7C1265.37 145.7 1262.77 146.433 1260.7 147.9C1258.7 149.3 1257.2 151.333 1256.2 154C1255.27 156.667 1254.8 159.767 1254.8 163.3C1254.8 168.833 1255.93 173.2 1258.2 176.4C1260.53 179.6 1263.83 181.2 1268.1 181.2C1270.37 181.2 1272.27 180.8 1273.8 180C1275.33 179.2 1276.63 178.4 1277.7 177.6C1278.77 176.8 1279.7 176.4 1280.5 176.4C1280.9 176.4 1281.27 176.5 1281.6 176.7C1282 176.833 1282.33 177.067 1282.6 177.4L1285.8 181.5C1283.2 184.5 1280.17 186.633 1276.7 187.9C1273.3 189.1 1269.77 189.7 1266.1 189.7ZM1275.6 145.5L1283.5 147.3V155.1H1279.4C1278.6 155.1 1277.97 154.9 1277.5 154.5C1277.1 154.033 1276.83 153.433 1276.7 152.7L1275.6 145.5ZM1298.06 189V114.9H1309.36V157.8H1311.66C1312.46 157.8 1313.09 157.7 1313.56 157.5C1314.02 157.233 1314.49 156.8 1314.96 156.2L1328.76 139.9C1329.29 139.233 1329.82 138.733 1330.36 138.4C1330.96 138.067 1331.76 137.9 1332.76 137.9H1343.06L1326.26 157.3C1325.79 157.9 1325.26 158.467 1324.66 159C1324.12 159.533 1323.49 160 1322.76 160.4C1324.09 161.267 1325.22 162.5 1326.16 164.1L1344.06 189H1333.86C1332.99 189 1332.26 188.833 1331.66 188.5C1331.06 188.167 1330.49 187.633 1329.96 186.9L1315.76 167C1315.29 166.267 1314.79 165.8 1314.26 165.6C1313.79 165.333 1313.06 165.2 1312.06 165.2H1309.36V189H1298.06ZM1332.26 147.6L1326.96 142.4V137.9H1340.56L1334.56 147.1L1332.26 147.6ZM1335.56 189L1330.46 178.5L1336.96 179.8L1335.56 189ZM1290.66 189V183.8C1290.66 183 1290.86 182.4 1291.26 182C1291.72 181.533 1292.36 181.233 1293.16 181.1L1299.46 179.8L1300.66 189H1290.66ZM1306.76 189L1307.96 179.8L1314.26 181.1C1315.06 181.233 1315.66 181.533 1316.06 182C1316.52 182.4 1316.76 183 1316.76 183.8V189H1306.76ZM1300.66 114.9L1299.46 124.1L1293.16 122.8C1292.36 122.6 1291.72 122.3 1291.26 121.9C1290.86 121.433 1290.66 120.8 1290.66 120V114.9H1300.66ZM1343.16 137.9V143C1343.16 143.8 1342.96 144.433 1342.56 144.9C1342.16 145.3 1341.56 145.6 1340.76 145.8L1334.36 147.1L1333.16 137.9H1343.16ZM1329.76 137.9L1328.56 147.1L1322.16 145.8C1321.36 145.6 1320.76 145.3 1320.36 144.9C1319.96 144.433 1319.76 143.8 1319.76 143V137.9H1329.76ZM1335.56 189L1336.76 179.8L1343.16 181.1C1343.89 181.233 1344.46 181.533 1344.86 182C1345.32 182.4 1345.56 183 1345.56 183.8V189H1335.56Z" fill="#0D2C54"/>
<path d="M19.25 105.161C19.25 94.0119 21.5767 91.6855 32.725 91.6855H198.275C209.424 91.6855 211.75 94.0119 211.75 105.161V116.711C211.75 127.859 209.424 130.186 198.275 130.186H32.725C21.5767 130.186 19.25 127.859 19.25 116.711V105.161Z" fill="#FFB400" stroke="#0D2C54" stroke-width="7" stroke-linecap="round"/>
<path d="M19.25 49.725C19.25 38.5767 21.5767 36.25 32.725 36.25H198.275C209.424 36.25 211.75 38.5767 211.75 49.725V61.275C211.75 72.4233 209.424 74.75 198.275 74.75H32.725C21.5767 74.75 19.25 72.4233 19.25 61.275V49.725Z" fill="#7FB800" stroke="#0D2C54" stroke-width="7" stroke-linecap="round"/>
<path d="M19.25 160.596C19.25 149.447 21.5767 147.121 32.725 147.121H198.275C209.424 147.121 211.75 149.447 211.75 160.596V172.146C211.75 183.295 209.424 185.621 198.275 185.621H32.725C21.5767 185.621 19.25 183.295 19.25 172.146V160.596Z" fill="#00A6ED" stroke="#0D2C54" stroke-width="7" stroke-linecap="round"/>
</svg>
