<svg width="1099" height="176" viewBox="0 0 1099 176" fill="none" xmlns="http://www.w3.org/2000/svg">
<path d="M169.42 174.128V4.68084H200.692V174.128H169.42ZM152.772 174.128V160.553C152.772 158.369 153.297 156.731 154.347 155.638C155.547 154.546 157.197 153.766 159.296 153.298L172.12 150.489L175.045 174.128H152.772ZM195.292 174.128L198.217 150.489L211.041 153.298C213.14 153.766 214.715 154.546 215.765 155.638C216.965 156.731 217.565 158.369 217.565 160.553V174.128H195.292ZM175.045 4.68084L172.12 28.3191L159.296 25.5106C157.197 25.0425 155.547 24.2624 154.347 23.1702C153.297 22.078 152.772 20.4397 152.772 18.2553V4.68084H175.045ZM217.565 4.68084V18.2553C217.565 20.4397 216.965 22.078 215.765 23.1702C214.715 24.2624 213.14 25.0425 211.041 25.5106L198.217 28.3191L195.292 4.68084H217.565ZM241.827 174.128V53.8298H259.15C263.05 53.8298 265.449 55.6241 266.349 59.2127L268.149 68.8085C272.949 63.6595 278.198 59.6028 283.897 56.6383C289.597 53.5177 296.271 51.9574 303.92 51.9574C312.319 51.9574 319.368 53.9078 325.068 57.8085C330.917 61.7092 335.342 67.0922 338.341 73.9574C341.341 80.8226 342.841 88.7021 342.841 97.5957V174.128H314.269V97.5957C314.269 90.4184 312.694 84.8014 309.544 80.7446C306.395 76.6879 301.595 74.6595 295.146 74.6595C290.497 74.6595 286.072 75.8297 281.873 78.1702C277.823 80.3546 273.924 83.3971 270.174 87.2978V174.128H241.827ZM224.954 174.128V160.553C224.954 158.369 225.479 156.731 226.529 155.638C227.729 154.546 229.378 153.766 231.478 153.298L244.302 150.489L247.226 174.128H224.954ZM264.775 174.128L267.699 150.489L280.523 153.298C282.623 153.766 284.197 154.546 285.247 155.638C286.447 156.731 287.047 158.369 287.047 160.553V174.128H264.775ZM337.441 174.128L340.141 150.489L353.19 153.298C355.139 153.766 356.714 154.546 357.914 155.638C359.114 156.731 359.714 158.369 359.714 160.553V174.128H337.441ZM247.226 53.8298L244.302 77.468L231.478 74.6595C229.378 74.1914 227.729 73.4113 226.529 72.3191C225.479 71.2269 224.954 69.5886 224.954 67.4042V53.8298H247.226ZM423.962 176C419.312 176 414.288 175.766 408.888 175.298C403.639 174.986 398.239 174.362 392.69 173.426C387.141 172.489 381.816 171.163 376.717 169.447V0H405.289V68.5744C409.788 63.5815 414.888 59.6028 420.587 56.6383C426.436 53.5177 433.185 51.9574 440.835 51.9574C449.834 51.9574 457.483 54.5319 463.782 59.6808C470.081 64.8297 474.881 71.929 478.18 80.9787C481.63 90.0283 483.355 100.482 483.355 112.34C483.355 124.511 481.405 135.355 477.505 144.872C473.606 154.39 467.307 161.957 458.608 167.574C449.909 173.191 438.36 176 423.962 176ZM425.986 153.766C432.286 153.766 437.46 152.284 441.51 149.319C445.709 146.199 448.784 141.596 450.734 135.511C452.833 129.426 453.883 121.858 453.883 112.809C453.883 100.326 452.008 90.8865 448.259 84.4893C444.659 77.9361 438.885 74.6595 430.936 74.6595C425.236 74.6595 420.362 75.9078 416.312 78.4042C412.413 80.7446 408.738 84.2553 405.289 88.9361V150.957C409.638 152.05 413.313 152.83 416.312 153.298C419.312 153.61 422.537 153.766 425.986 153.766ZM382.116 0L379.417 23.6383L366.368 20.8298C364.418 20.3617 362.843 19.5815 361.644 18.4894C360.444 17.3972 359.844 15.7589 359.844 13.5745V0H382.116ZM547.946 51.9574C559.644 51.9574 569.768 54.5319 578.317 59.6808C586.866 64.6737 593.465 71.851 598.115 81.2127C602.764 90.4184 605.089 101.262 605.089 113.745C605.089 126.227 602.764 137.149 598.115 146.511C593.465 155.716 586.866 162.972 578.317 168.277C569.768 173.426 559.644 176 547.946 176C536.397 176 526.273 173.426 517.574 168.277C509.025 162.972 502.351 155.716 497.551 146.511C492.752 137.149 490.352 126.227 490.352 113.745C490.352 101.262 492.752 90.4184 497.551 81.2127C502.351 71.851 509.025 64.6737 517.574 59.6808C526.273 54.5319 536.397 51.9574 547.946 51.9574ZM547.946 153.532C557.394 153.532 564.369 150.177 568.868 143.468C573.368 136.759 575.617 126.929 575.617 113.979C575.617 105.241 574.642 97.9858 572.693 92.2127C570.743 86.2836 567.668 81.8368 563.469 78.8723C559.419 75.9077 554.245 74.4255 547.946 74.4255C541.646 74.4255 536.397 75.9858 532.197 79.1063C527.998 82.0709 524.848 86.5177 522.748 92.4467C520.799 98.2198 519.824 105.397 519.824 113.979C519.824 126.617 522.073 136.369 526.573 143.234C531.222 150.099 538.347 153.532 547.946 153.532ZM663.255 176C654.856 176 647.732 174.05 641.883 170.149C636.034 166.092 631.609 160.709 628.609 154C625.61 147.135 624.11 139.255 624.11 130.362V53.8298H652.682V130.362C652.682 137.695 654.257 143.39 657.406 147.447C660.556 151.348 665.355 153.298 671.805 153.298C676.604 153.298 681.029 152.206 685.078 150.021C689.128 147.837 693.027 144.794 696.777 140.894V53.8298H725.124V174.128H707.8C703.901 174.128 701.501 172.333 700.601 168.745L698.802 159.383C694.002 164.22 688.753 168.199 683.053 171.319C677.354 174.44 670.755 176 663.255 176ZM719.724 174.128L722.649 150.489L735.472 153.298C737.572 153.766 739.147 154.546 740.197 155.638C741.397 156.731 741.997 158.369 741.997 160.553V174.128H719.724ZM629.509 53.8298L626.81 77.468L613.761 74.6595C611.811 74.1914 610.236 73.4113 609.037 72.3191C607.837 71.2269 607.237 69.5886 607.237 67.4042V53.8298H629.509ZM702.176 53.8298L699.251 77.468L686.428 74.6595C684.328 74.1914 682.678 73.4113 681.478 72.3191C680.429 71.2269 679.904 69.5886 679.904 67.4042V53.8298H702.176ZM764.295 174.128V53.8298H781.618C785.518 53.8298 787.917 55.6241 788.817 59.2127L790.617 68.8085C795.417 63.6595 800.666 59.6028 806.365 56.6383C812.065 53.5177 818.739 51.9574 826.388 51.9574C834.787 51.9574 841.836 53.9078 847.536 57.8085C853.385 61.7092 857.81 67.0922 860.809 73.9574C863.809 80.8226 865.309 88.7021 865.309 97.5957V174.128H836.737V97.5957C836.737 90.4184 835.162 84.8014 832.012 80.7446C828.863 76.6879 824.063 74.6595 817.614 74.6595C812.965 74.6595 808.54 75.8297 804.341 78.1702C800.291 80.3546 796.391 83.3971 792.642 87.2978V174.128H764.295ZM747.422 174.128V160.553C747.422 158.369 747.947 156.731 748.997 155.638C750.197 154.546 751.847 153.766 753.946 153.298L766.77 150.489L769.694 174.128H747.422ZM787.242 174.128L790.167 150.489L802.991 153.298C805.09 153.766 806.665 154.546 807.715 155.638C808.915 156.731 809.515 158.369 809.515 160.553V174.128H787.242ZM859.909 174.128L862.609 150.489L875.657 153.298C877.607 153.766 879.182 154.546 880.382 155.638C881.582 156.731 882.182 158.369 882.182 160.553V174.128H859.909ZM769.694 53.8298L766.77 77.468L753.946 74.6595C751.847 74.1914 750.197 73.4113 748.997 72.3191C747.947 71.2269 747.422 69.5886 747.422 67.4042V53.8298H769.694ZM929.781 176C920.932 176 913.283 173.426 906.834 168.277C900.535 162.972 895.66 155.716 892.211 146.511C888.761 137.305 887.036 126.617 887.036 114.447C887.036 102.589 889.061 91.9787 893.111 82.617C897.16 73.2553 902.934 65.7659 910.434 60.1489C917.933 54.5319 926.707 51.7234 936.756 51.7234C943.205 51.7234 948.679 52.8156 953.179 55C957.678 57.0283 961.728 59.8368 965.327 63.4255V0H993.899V174.128H976.351C972.602 174.128 970.202 172.333 969.152 168.745L966.902 157.277C962.253 162.894 956.853 167.418 950.704 170.851C944.555 174.284 937.581 176 929.781 176ZM939.455 152.83C945.155 152.83 950.029 151.582 954.079 149.085C958.128 146.589 961.878 143.078 965.327 138.553V84.4893C962.178 80.5886 958.803 77.8581 955.203 76.2978C951.604 74.7375 947.704 73.9574 943.505 73.9574C937.656 73.9574 932.706 75.5177 928.657 78.6382C924.757 81.7588 921.757 86.3616 919.658 92.4467C917.558 98.3758 916.508 105.709 916.508 114.447C916.508 126.929 918.383 136.447 922.132 143C925.882 149.553 931.656 152.83 939.455 152.83ZM970.952 0L968.027 23.6383L954.979 20.8298C953.029 20.3617 951.454 19.5815 950.254 18.4894C949.054 17.3972 948.454 15.7589 948.454 13.5745V0H970.952ZM988.275 174.128L991.199 150.489L1004.25 153.298C1006.2 153.766 1007.77 154.546 1008.97 155.638C1010.17 156.731 1010.77 158.369 1010.77 160.553V174.128H988.275Z" fill="#0D2C54"/>
<path d="M1067.03 174.863C1058.51 174.863 1051.16 171.776 1044.98 165.602C1038.81 159.428 1035.72 151.931 1035.72 143.111C1035.72 134.585 1038.81 127.235 1044.98 121.061C1051.16 114.887 1058.51 111.8 1067.03 111.8C1075.85 111.8 1083.35 114.887 1089.53 121.061C1095.7 127.235 1098.79 134.585 1098.79 143.111C1098.79 151.931 1095.7 159.428 1089.53 165.602C1083.35 171.776 1075.85 174.863 1067.03 174.863Z" fill="#0D2C54"/>
<path d="M3.5 81.9789C3.5 70.8189 4.84431 68.4902 11.2857 68.4902H106.938C113.38 68.4902 114.724 70.8189 114.724 81.9789V93.5406C114.724 104.7 113.38 107.029 106.938 107.029H11.2857C4.84431 107.029 3.5 104.7 3.5 93.5406V81.9789Z" fill="#FFB400" stroke="#0D2C54" stroke-width="7" stroke-linecap="round"/>
<path d="M3.5 21.2884C3.5 10.1288 4.84431 7.7998 11.2857 7.7998H106.938C113.38 7.7998 114.724 10.1288 114.724 21.2884V32.8501C114.724 44.0098 113.38 46.3388 106.938 46.3388H11.2857C4.84431 46.3388 3.5 44.0098 3.5 32.8501V21.2884Z" fill="#7FB800" stroke="#0D2C54" stroke-width="7" stroke-linecap="round"/>
<path d="M3.5 142.669C3.5 131.509 4.84431 129.181 11.2857 129.181H106.938C113.38 129.181 114.724 131.509 114.724 142.669V154.231C114.724 165.391 113.38 167.72 106.938 167.72H11.2857C4.84431 167.72 3.5 165.391 3.5 154.231V142.669Z" fill="#00A6ED" stroke="#0D2C54" stroke-width="7" stroke-linecap="round"/>
</svg>
