<svg width="2909" height="399" viewBox="0 0 2909 399" fill="none" xmlns="http://www.w3.org/2000/svg">
<path d="M652.5 0.0507812H57.5C25.7436 0.0507812 0 25.794 0 57.551C0 89.307 25.7436 115.051 57.5 115.051H652.5C684.256 115.051 710 89.307 710 57.551C710 25.794 684.256 0.0507812 652.5 0.0507812Z" fill="#EE775F"/>
<path d="M653.5 144.051H154.5C123.296 144.051 98 169.347 98 200.551C98 231.755 123.296 257.051 154.5 257.051H653.5C684.704 257.051 710 231.755 710 200.551C710 169.347 684.704 144.051 653.5 144.051Z" fill="#F8C751"/>
<path d="M653.5 285.051H308.5C277.296 285.051 252 310.347 252 341.551C252 372.755 277.296 398.051 308.5 398.051H653.5C684.704 398.051 710 372.755 710 341.551C710 310.347 684.704 285.051 653.5 285.051Z" fill="#69D0B2"/>
<path d="M855 392.774V110.516H922.871V392.774H855ZM855 78.866V6.226H922.871V78.866H855ZM990.718 392.774V110.516H1054.44V166.034L1049.26 156.176C1055.82 139.226 1066.54 126.428 1081.39 117.78C1096.59 108.787 1114.2 104.29 1134.23 104.29C1154.96 104.29 1173.26 108.787 1189.15 117.78C1205.39 126.773 1217.99 139.399 1226.97 155.657C1235.95 171.568 1240.44 190.074 1240.44 211.174V392.774H1172.57V227.259C1172.57 214.806 1170.16 204.083 1165.32 195.09C1160.48 186.096 1153.74 179.178 1145.11 174.336C1136.82 169.147 1126.98 166.553 1115.58 166.553C1104.52 166.553 1094.68 169.147 1086.05 174.336C1077.42 179.178 1070.68 186.096 1065.84 195.09C1061 204.083 1058.59 214.806 1058.59 227.259V392.774H990.718ZM1456.89 399C1436.51 399 1417.69 395.022 1400.41 387.066C1383.49 378.765 1370.02 367.003 1360 351.784L1366.74 338.294V392.774H1303.01V0H1370.88V166.553L1360.52 152.544C1370.2 137.324 1383.32 125.563 1399.9 117.262C1416.48 108.613 1435.65 104.29 1457.41 104.29C1484 104.29 1508.01 110.862 1529.42 124.007C1550.84 137.15 1567.76 154.792 1580.2 176.93C1592.98 199.067 1599.36 223.972 1599.36 251.645C1599.36 278.971 1593.15 303.876 1580.71 326.36C1568.28 348.843 1551.36 366.658 1529.94 379.802C1508.53 392.601 1484.18 399 1456.89 399ZM1449.12 336.737C1464.66 336.737 1478.48 333.105 1490.56 325.841C1502.66 318.577 1511.98 308.546 1518.54 295.748C1525.45 282.949 1528.9 268.248 1528.9 251.645C1528.9 235.042 1525.45 220.514 1518.54 208.061C1511.98 195.262 1502.66 185.232 1490.56 177.968C1478.48 170.357 1464.66 166.553 1449.12 166.553C1434.27 166.553 1420.8 170.185 1408.7 177.449C1396.96 184.713 1387.64 194.917 1380.73 208.061C1374.17 220.859 1370.88 235.387 1370.88 251.645C1370.88 268.248 1374.17 282.949 1380.73 295.748C1387.64 308.546 1396.96 318.577 1408.7 325.841C1420.8 333.105 1434.27 336.737 1449.12 336.737ZM1794.11 399C1766.47 399 1741.26 392.601 1718.46 379.802C1696.01 367.003 1678.05 349.536 1664.58 327.398C1651.45 305.26 1644.89 280.009 1644.89 251.645C1644.89 223.28 1651.45 198.03 1664.58 175.892C1678.05 153.754 1696.01 136.286 1718.46 123.488C1740.92 110.689 1766.13 104.29 1794.11 104.29C1821.74 104.29 1846.78 110.689 1869.23 123.488C1891.68 136.286 1909.47 153.754 1922.6 175.892C1936.07 197.684 1942.8 222.935 1942.8 251.645C1942.8 280.009 1936.07 305.26 1922.6 327.398C1909.12 349.536 1891.17 367.003 1868.71 379.802C1846.26 392.601 1821.39 399 1794.11 399ZM1794.11 336.737C1809.31 336.737 1822.6 333.105 1834 325.841C1845.74 318.577 1854.9 308.546 1861.46 295.748C1868.37 282.603 1871.82 267.902 1871.82 251.645C1871.82 235.042 1868.37 220.514 1861.46 208.061C1854.9 195.262 1845.74 185.232 1834 177.968C1822.6 170.357 1809.31 166.553 1794.11 166.553C1778.56 166.553 1764.92 170.357 1753.18 177.968C1741.44 185.232 1732.11 195.262 1725.2 208.061C1718.64 220.514 1715.36 235.042 1715.36 251.645C1715.36 267.902 1718.64 282.603 1725.2 295.748C1732.11 308.546 1741.44 318.577 1753.18 325.841C1764.92 333.105 1778.56 336.737 1794.11 336.737ZM2099.96 399C2078.2 399 2059.21 394.157 2042.97 384.472C2027.08 374.786 2014.82 361.296 2006.18 344.001C1997.89 326.706 1993.75 306.471 1993.75 283.295V110.516H2061.62V277.588C2061.62 289.348 2063.87 299.725 2068.36 308.719C2073.19 317.366 2079.93 324.285 2088.56 329.473C2097.55 334.315 2107.56 336.737 2118.61 336.737C2129.67 336.737 2139.51 334.315 2148.14 329.473C2156.78 324.285 2163.52 317.193 2168.35 308.2C2173.19 299.207 2175.6 288.484 2175.6 276.031V110.516H2243.47V392.774H2179.23V337.256L2184.93 347.114C2178.37 364.409 2167.49 377.38 2152.29 386.029C2137.44 394.676 2120 399 2099.96 399ZM2311.75 392.774V110.516H2375.48V166.034L2370.3 156.176C2376.86 139.226 2387.56 126.428 2402.42 117.78C2417.61 108.787 2435.23 104.29 2455.26 104.29C2475.99 104.29 2494.29 108.787 2510.18 117.78C2526.41 126.773 2539.02 139.399 2548 155.657C2556.98 171.568 2561.48 190.074 2561.48 211.174V392.774H2493.6V227.259C2493.6 214.806 2491.18 204.083 2486.35 195.09C2481.51 186.096 2474.78 179.178 2466.14 174.336C2457.86 169.147 2448.01 166.553 2436.61 166.553C2425.56 166.553 2415.71 169.147 2407.08 174.336C2398.44 179.178 2391.71 186.096 2386.88 195.09C2382.04 204.083 2379.62 214.806 2379.62 227.259V392.774H2311.75ZM2755.12 399C2727.84 399 2703.49 392.601 2682.07 379.802C2660.66 366.658 2643.73 348.843 2631.3 326.36C2618.86 303.876 2612.65 278.971 2612.65 251.645C2612.65 223.972 2618.86 199.067 2631.3 176.93C2643.73 154.792 2660.66 137.15 2682.07 124.007C2703.83 110.862 2728.01 104.29 2754.61 104.29C2776.02 104.29 2795.02 108.613 2811.6 117.262C2828.52 125.563 2841.82 137.324 2851.49 152.544L2841.13 166.553V0H2909V392.774H2844.76V338.294L2852.01 351.784C2842.34 367.003 2828.87 378.765 2811.6 387.066C2794.33 395.022 2775.51 399 2755.12 399ZM2762.38 336.737C2777.92 336.737 2791.57 333.105 2803.31 325.841C2815.05 318.577 2824.21 308.546 2830.77 295.748C2837.68 282.949 2841.13 268.248 2841.13 251.645C2841.13 235.387 2837.68 220.859 2830.77 208.061C2824.21 194.917 2815.05 184.713 2803.31 177.449C2791.57 170.185 2777.92 166.553 2762.38 166.553C2747.18 166.553 2733.54 170.357 2721.45 177.968C2709.36 185.232 2699.86 195.262 2692.95 208.061C2686.39 220.514 2683.11 235.042 2683.11 251.645C2683.11 268.248 2686.39 282.949 2692.95 295.748C2699.86 308.546 2709.36 318.577 2721.45 325.841C2733.54 333.105 2747.18 336.737 2762.38 336.737Z" fill="#2D2D2D"/>
</svg>
